<svg xmlns="http://www.w3.org/2000/svg" viewBox="0 0 500 500"><g id="freepik--background-simple--inject-113"><path d="M452.79,246.14c-3.89,28.95-13.8,56.32-25.27,86.41C399.9,404.91,312.36,478.26,214.14,459.13s-138-140-156.65-217.52c-.36-1.49-.69-3-1-4.52C43,170.09,80.38,81.25,180,54.49a237.5,237.5,0,0,1,50.15-7.63c46.15-2.25,82.66,3.08,110.87,11.25q3.63,1.05,7.19,2.28a154.68,154.68,0,0,1,98.59,105.22C455.08,195.4,456.14,221.35,452.79,246.14Z" style="fill:#5D84DF"></path><path d="M452.79,246.14c-3.89,28.95-13.8,56.32-25.27,86.41C399.9,404.91,312.36,478.26,214.14,459.13s-138-140-156.65-217.52c-.36-1.49-.69-3-1-4.52C43,170.09,80.38,81.25,180,54.49a237.5,237.5,0,0,1,50.15-7.63c46.15-2.25,82.66,3.08,110.87,11.25q3.63,1.05,7.19,2.28a154.68,154.68,0,0,1,98.59,105.22C455.08,195.4,456.14,221.35,452.79,246.14Z" style="fill:#fff;opacity:0.7000000000000001"></path><g style="opacity:0.34"><path d="M180,54.49,56.49,237.09C43,170.09,80.38,81.25,180,54.49Z"></path><path d="M452.79,246.14,348.24,60.39a154.68,154.68,0,0,1,98.59,105.22C455.08,195.4,456.14,221.35,452.79,246.14Z"></path></g></g><g id="freepik--Floor--inject-113"><line x1="20.89" y1="405.16" x2="480.95" y2="405.16" style="fill:none;stroke:#263238;stroke-linecap:round;stroke-linejoin:round"></line></g><g id="freepik--shadow-2--inject-113"><ellipse cx="364.5" cy="432.06" rx="94.77" ry="12.56" style="fill:#263238"></ellipse></g><g id="freepik--shadow-1--inject-113"><ellipse cx="149.12" cy="432.06" rx="94.77" ry="12.56" style="fill:#263238"></ellipse></g><g id="freepik--Ring--inject-113"><rect x="19.22" y="234.28" width="462.24" height="5.03" style="fill:#fff"></rect><line x1="481.46" y1="239.31" x2="19.22" y2="239.31" style="fill:#fff;stroke:#263238;stroke-linecap:round;stroke-linejoin:round"></line><line x1="19.22" y1="234.28" x2="481.46" y2="234.28" style="fill:#fff;stroke:#263238;stroke-linecap:round;stroke-linejoin:round"></line><rect x="19.22" y="273.52" width="462.24" height="5.03" style="fill:#fff"></rect><line x1="481.46" y1="278.55" x2="19.22" y2="278.55" style="fill:#fff;stroke:#263238;stroke-linecap:round;stroke-linejoin:round"></line><line x1="19.22" y1="273.52" x2="481.46" y2="273.52" style="fill:#fff;stroke:#263238;stroke-linecap:round;stroke-linejoin:round"></line><rect x="19.22" y="312.76" width="462.24" height="5.03" style="fill:#fff"></rect><line x1="481.46" y1="317.79" x2="19.22" y2="317.79" style="fill:#fff;stroke:#263238;stroke-linecap:round;stroke-linejoin:round"></line><line x1="19.22" y1="312.76" x2="481.46" y2="312.76" style="fill:#fff;stroke:#263238;stroke-linecap:round;stroke-linejoin:round"></line><rect x="19.22" y="352" width="462.24" height="5.03" style="fill:#fff"></rect><line x1="481.46" y1="357.03" x2="19.22" y2="357.03" style="fill:#fff;stroke:#263238;stroke-linecap:round;stroke-linejoin:round"></line><line x1="19.22" y1="352" x2="481.46" y2="352" style="fill:#fff;stroke:#263238;stroke-linecap:round;stroke-linejoin:round"></line></g><g id="freepik--character-2--inject-113"><path d="M306.54,331.4s-2.33,6.71-2,10.5,13.7,70.53,13.7,70.53l13.12,1.45s1.46-20.69,2.91-30,3.5-17.48,1.75-24.48-6.41-17.78-6.41-17.78Z" style="fill:#fff;stroke:#263238;stroke-linecap:round;stroke-linejoin:round"></path><polygon points="306.07 334.49 335.98 359.38 332.05 347.73 306.07 334.49" style="fill:#263238;stroke:#263238;stroke-linecap:round;stroke-linejoin:round"></polygon><path d="M315.91,401l2.29,11.47,13.12,1.45s.35-5,.89-11.24Z" style="fill:#fff;stroke:#263238;stroke-linecap:round;stroke-linejoin:round"></path><path d="M333.65,411.55s-16-4.95-17.49-3.49-2,4.95-2,4.95a89.45,89.45,0,0,1-7.28,6.12c-2.92,2-7,4.66-9.33,5.54s-6.41,1.16-6.7,3.5-1.75,2.91,5.83,3.2,38.18,0,38.18,0,2.91.58,3.2-3.79S333.65,411.55,333.65,411.55Z" style="fill:#5D84DF;stroke:#263238;stroke-linecap:round;stroke-linejoin:round"></path><path d="M296.64,431.37c7.57.29,38.18,0,38.18,0s2.91.58,3.2-3.79c-15.79,1.94-47.21.59-47.21.59C290.51,430.5,289.06,431.08,296.64,431.37Z" style="fill:#fff;stroke:#263238;stroke-linecap:round;stroke-linejoin:round"></path><path d="M410,409.22s-5.83,1.17-5.25,2.92,2,5.53,2,5.53a56.38,56.38,0,0,1-6.7,3.79c-3.21,1.46-6.7,4.37-5.54,5.54a10.43,10.43,0,0,0,6.12,2.33c2,0,14.87.58,14.87.58s6.12,2.92,10.78,1.17,7.29-.58,6.12-4.95a30.89,30.89,0,0,0-4.37-8.75,19.53,19.53,0,0,0-3.21-7.28C422.54,407.18,415.26,406.31,410,409.22Z" style="fill:#5D84DF;stroke:#263238;stroke-linecap:round;stroke-linejoin:round"></path><path d="M432.45,426.13c-.1-.39-.22-.77-.36-1.16-5.86,2.93-11.92,3.32-14.81,1.39-3.22-2.15-5.37,1.07-13.26,0a54.53,54.53,0,0,1-8.55-1.8c-1,1-1.45,1.9-.91,2.44a10.43,10.43,0,0,0,6.12,2.33c2,0,14.87.58,14.87.58s6.12,2.92,10.78,1.17S433.62,430.5,432.45,426.13Z" style="fill:#fff;stroke:#263238;stroke-linecap:round;stroke-linejoin:round"></path><path d="M364.54,348.6s11.08,28.27,21.57,37.6,16.61,14.57,17.49,16.32,4.66,8.45,6.41,9.91,7.58,1.16,9.33-.29,2.33-2,1.45-3.5-10.49-18.07-12-24.78-10.49-29.72-14.28-34.68L387,339.27Z" style="fill:#fff;stroke:#263238;stroke-linecap:round;stroke-linejoin:round"></path><path d="M369.27,360.22l29-2.74s-.82-2.2-2.25-5.25a83.26,83.26,0,0,0-4.75-8l-24,11.74Z" style="fill:#263238;stroke:#263238;stroke-linecap:round;stroke-linejoin:round"></path><path d="M404.21,403.67c1.4,2.57,4.32,7.53,5.8,8.76,1.75,1.45,7.58,1.16,9.33-.29s2.33-2,1.45-3.5c-.36-.61-2.27-3.89-4.46-8A16.59,16.59,0,0,1,404.21,403.67Z" style="fill:#fff;stroke:#263238;stroke-linecap:round;stroke-linejoin:round"></path><path d="M319,148.24s-1.92,11.55-1.22,13.29a18.76,18.76,0,0,0,3,4.2s-2.45,6.65-1.75,7.53,4.37,1.57,5.25,1.57,1.75,4.55,3.32,7,7.7,1,7.7,1l4,4.2-7.18,4.55s-8.22-1.57-12.59,1.75a14.55,14.55,0,0,0-5.25,8.22s-4.55.35-7.18,2.28-7.87,6.65-7.87,6.65a53.51,53.51,0,0,0-5.43-9.27c-2.8-3.5-9.45-8-11.9-11.38a51.15,51.15,0,0,0-5.42-6.12l-10.85,6.3a36.49,36.49,0,0,1,7.7,13.64c2.45,8.23,4.38,16.28,10.5,20.48s12.77,8,13.82,7.52,14.35-3.15,20.3-5.07,15.75-8,15.75-8,2.27,6.47,4.55,11.55a71.19,71.19,0,0,1,4.55,17.32,41.06,41.06,0,0,0,1.57,7.52s21.7-11,36.57-7.87,15.75,4.37,15.75,4.37,2.8-11.89,2.8-29.57-2.27-37.44-12.25-48.64-28.34-8-29-7.88-2.63-.17-3.68-2.45.35-5.24,0-9.62-3.15-8.92-9.8-12.77-14.52-1.75-19.07,0S319,148.24,319,148.24Z" style="fill:#fff;stroke:#263238;stroke-linecap:round;stroke-linejoin:round"></path><path d="M323,137.21s-2.45.35-5.24,4-.88,5.25-.88,5.25-3.15-.88-2.45,1.4,3.85,3,3.85,3,8.05-7.87,8.05-6.3-5.42,6.3,0,7,8.05-3.15,8.22-2.45-1.75,2.45.53,3,3.32,1.57,4-.18,1.05-5.95,4.73-3.85,4.9,7,4,8.93-3.5,3-3.5,3,4.73,3.32,7.53,4,4-.35,4.37-1.4a47.94,47.94,0,0,0,.53-6.12s1.22-.7,1.22-4.2a19.13,19.13,0,0,0-.7-5.07c0-.7,1.93-1.75.35-5.6a11.14,11.14,0,0,0-4.72-5.78c-.53-.17,1.92-1.75-3.15-3.67a22,22,0,0,0-8.93-1.58,8.08,8.08,0,0,0-6.47-.17c-3.68,1.4-5.6,2.27-5.6,2.27S323.51,133.19,323,137.21Z" style="fill:#263238;stroke:#263238;stroke-linecap:round;stroke-linejoin:round"></path><path d="M344.16,161.19a20.86,20.86,0,0,1,1.22,5.77c0,2.45-1.92,4.72-2.45,5.42" style="fill:none;stroke:#263238;stroke-linecap:round;stroke-linejoin:round"></path><path d="M346.71,182c-.09-5.3-.22-14.06-.1-14.55" style="fill:none;stroke:#263238;stroke-linecap:round;stroke-linejoin:round"></path><path d="M346.78,186s0-.75,0-2" style="fill:none;stroke:#263238;stroke-linecap:round;stroke-linejoin:round"></path><path d="M355.71,181.66a71.3,71.3,0,0,0-7.7,11.2s-5.95-2.8-7.18-4.9" style="fill:none;stroke:#263238;stroke-linecap:round;stroke-linejoin:round"></path><path d="M333.66,218.58s-5.43-5.6-7.35-11.55" style="fill:none;stroke:#263238;stroke-linecap:round;stroke-linejoin:round"></path><path d="M314.23,220.52a22,22,0,0,1-4,.16" style="fill:none;stroke:#263238;stroke-linecap:round;stroke-linejoin:round"></path><path d="M330.68,215.25a65.91,65.91,0,0,1-12.33,4.5" style="fill:none;stroke:#263238;stroke-linecap:round;stroke-linejoin:round"></path><path d="M317.56,202.3a14,14,0,0,1,4.9,1.93" style="fill:none;stroke:#263238;stroke-linecap:round;stroke-linejoin:round"></path><path d="M323.44,164.46s-.52-2.33,2.46-2.59" style="fill:none;stroke:#263238;stroke-linecap:round;stroke-linejoin:round"></path><path d="M321.37,161.35s0-2.59,3.63-2.72" style="fill:none;stroke:#263238;stroke-linecap:round;stroke-linejoin:round"></path><path d="M355.12,210.41a7.21,7.21,0,0,0,2.51.26" style="fill:none;stroke:#263238;stroke-linecap:round;stroke-linejoin:round"></path><path d="M348.12,198s1.06,7.6,3.59,10.35" style="fill:none;stroke:#263238;stroke-linecap:round;stroke-linejoin:round"></path><path d="M290.41,223.54a7.69,7.69,0,0,0,4.46-1.25" style="fill:none;stroke:#263238;stroke-linecap:round;stroke-linejoin:round"></path><path d="M280.5,214.26s4,6.34,7.4,8.45" style="fill:none;stroke:#263238;stroke-linecap:round;stroke-linejoin:round"></path><path d="M284.38,192.58a20.85,20.85,0,0,1-2.52-2.7,51.15,51.15,0,0,0-5.42-6.12l-10.85,6.3A36.35,36.35,0,0,1,272,200.18Z" style="fill:#fff;stroke:#263238;stroke-linecap:round;stroke-linejoin:round"></path><path d="M276.44,183.76s.73-3.62,1.25-8.29.65-11.27-1.81-14.25-3.76-3.37-3.76-3.37-4.28-5.7-10.89-3.5-14,11.79-14.12,16.72,6.09,10.11,6.48,10.37,4,4.53,5.7,6,6.3,2.66,6.3,2.66Z" style="fill:#5D84DF;stroke:#263238;stroke-linecap:round;stroke-linejoin:round"></path><path d="M272.12,157.85s-14.64,5.57-13.61,9.85,8,2.2,9.72,1.16a8.34,8.34,0,0,0,5.83-.9" style="fill:none;stroke:#263238;stroke-linecap:round;stroke-linejoin:round"></path><path d="M262.66,170.29s-4.8,5.57-10.5,6.35" style="fill:none;stroke:#263238;stroke-linecap:round;stroke-linejoin:round"></path><path d="M355.94,347.8l4.44,11a93.41,93.41,0,0,0,16.69-4.65c9.72-3.59,22.61-14.15,22.61-14.15l-11.2-27.68S360.38,345.06,355.94,347.8Z" style="fill:#fff;stroke:#263238;stroke-linecap:round;stroke-linejoin:round"></path><path d="M344.1,260.75v9.72s-2.53,2.74-3,4.43a19.76,19.76,0,0,1-1.27,3.38s-26.41,31.49-30,38.46-7.39,15.43-7.39,15.43,26,14.37,35.29,18.8a115,115,0,0,0,14.15,5.92l19.44-18.38s16.49-20.71,19-25.15,11.83-22,12.26-30.22-3-22-3-22a16.57,16.57,0,0,0-12.26-8c-8.87-1.27-26.62.21-31.9,1.9A57.2,57.2,0,0,0,344.1,260.75Z" style="fill:#fff;stroke:#263238;stroke-linecap:round;stroke-linejoin:round"></path><path d="M384.66,252.85l-.7,0c-2.53.32-11.09,1.51-14.5,3.3,0,0,0,5.49-.21,9.29s-4.65,6.34-5.49,8.67,1.48,3.38,0,5.28-3.38,1.9-4.86,4.44l-1.48,2.53s-3.17,4-3.6,7-.21,4.22-1.26,6.34-3.81,7.18-12.89,18c-8,9.47-18.09,21.06-20.42,23.73,7,3.76,14.39,7.68,18.52,9.65,1.28.62,2.47,1.17,3.58,1.67A152,152,0,0,1,355.94,329c11.62-15.43,20.28-27.05,20.92-30.22s-3-7.39-2.33-10.35,3-5.07,5.29-7.19,7.39-6.55,7.81-8.66-2.53-4-3.17-8.45A54.54,54.54,0,0,1,384.66,252.85Z" style="fill:#5D84DF;stroke:#263238;stroke-linecap:round;stroke-linejoin:round"></path><path d="M340.66,251.47a11.93,11.93,0,0,0,1.12,5c1.27,3,.21,6.34,2.11,6.76s12.68-6.13,25.57-7.18,14-2.12,20.08.63,9.93,8,11.41,6.13,1.05-3.17,1.05-7.4S397.78,246,390.59,243s-26.83-1.06-37.82,2.32S340.66,251.47,340.66,251.47Z" style="fill:#263238;stroke:#263238;stroke-linecap:round;stroke-linejoin:round"></path><path d="M350,286.53s26.84-1.27,36.13-5.71" style="fill:none;stroke:#263238;stroke-linecap:round;stroke-linejoin:round"></path><path d="M352.89,305.14c-2.29.79-4.6,1.5-6.88,2.09" style="fill:none;stroke:#263238;stroke-linecap:round;stroke-linejoin:round"></path><path d="M390.17,285.68s-15.74,11.08-33.3,18" style="fill:none;stroke:#263238;stroke-linecap:round;stroke-linejoin:round"></path><path d="M386.46,301c-3.82,3.84-8.12,7.8-11.08,9.42" style="fill:none;stroke:#263238;stroke-linecap:round;stroke-linejoin:round"></path><path d="M395,291.81s-2.41,2.76-5.69,6.2" style="fill:none;stroke:#263238;stroke-linecap:round;stroke-linejoin:round"></path><path d="M352.91,165.21s-3.15,5.25.17,12.42a15.45,15.45,0,0,0,10.67,8.4s.88,8.75,3.5,11.55,9.28,6.3,9.28,6.3-9.1,6-11.38,10.5-10,9.45-12.59,11a84.51,84.51,0,0,1-8.93,4l5.6,12.94s19.95-8.22,21.35-8.57,14.35-3.32,19.95-7.35a161.75,161.75,0,0,0,15.39-13.3c2.1-2.1,5.43-5.42,3.68-10S403,195,403,195a74.45,74.45,0,0,0-6.65-13.83,57.21,57.21,0,0,0-8.22-10.5c-.53-.52-3.68-9.62-15.05-12.24S354.66,162.06,352.91,165.21Z" style="fill:#fff;stroke:#263238;stroke-linecap:round;stroke-linejoin:round"></path><path d="M376.53,203.88a62.92,62.92,0,0,1,12.77-7.52" style="fill:none;stroke:#263238;stroke-linecap:round;stroke-linejoin:round"></path><path d="M379.18,215.31c4.43-.44,9.52-1.07,11.35-1.81,3.5-1.4,6-5.77,6.3-7.52" style="fill:none;stroke:#263238;stroke-linecap:round;stroke-linejoin:round"></path><path d="M371.63,216l2.73-.2" style="fill:none;stroke:#263238;stroke-linecap:round;stroke-linejoin:round"></path><path d="M382.26,173.34a25.93,25.93,0,0,1,2.84.44" style="fill:none;stroke:#263238;stroke-linecap:round;stroke-linejoin:round"></path><path d="M360.78,178.86s.7,0,5.42-.7c4.14-.61,8.41-3.77,11.52-4.67" style="fill:none;stroke:#263238;stroke-linecap:round;stroke-linejoin:round"></path><path d="M349.23,242.37s11.83-4.87,17.91-7.27l-7-15a62.32,62.32,0,0,1-7.55,5.31,84.51,84.51,0,0,1-8.93,4Z" style="fill:#fff;stroke:#263238;stroke-linecap:round;stroke-linejoin:round"></path><path d="M343.63,229.43s-4.55-1.4-7.7-2.45-10.15-3-11.9-1.23-3,3.68-3.5,4.2-5.24,0-5.94,5.43,0,13.82,5.6,17.84,16.27,1.4,20.47-1.75,8.57-9.1,8.57-9.1Z" style="fill:#5D84DF;stroke:#263238;stroke-linecap:round;stroke-linejoin:round"></path><path d="M374.24,143.65a2.17,2.17,0,1,1-2.17-2.16A2.17,2.17,0,0,1,374.24,143.65Z" style="fill:none;stroke:#263238;stroke-linecap:round;stroke-linejoin:round"></path><path d="M365.09,136a.72.72,0,1,1-.72-.72A.72.72,0,0,1,365.09,136Z" style="fill:none;stroke:#263238;stroke-linecap:round;stroke-linejoin:round"></path><path d="M377.12,132.82a1,1,0,1,1-1-1A1,1,0,0,1,377.12,132.82Z" style="fill:none;stroke:#263238;stroke-linecap:round;stroke-linejoin:round"></path><path d="M308.3,155.93a1.45,1.45,0,1,1-1.45-1.45A1.45,1.45,0,0,1,308.3,155.93Z" style="fill:none;stroke:#263238;stroke-linecap:round;stroke-linejoin:round"></path></g><g id="freepik--character-1--inject-113"><path d="M197.59,147.23s3.07-1,3.41-1.87,3.75-10.05,2.73-16.35-4.94-15.33-14.14-18.06-16.69-.17-20.61,6.31-5.11,13.62-5.79,18-4.94,13.28-5.79,14.31.85,1.87-4.6,2.89a68.94,68.94,0,0,1-11.07,1s-9.88-5.28-17.37.69-8,13.11-7.67,15.67.51,6,.51,6,3.58,17.2,6.3,29.8,4.26,23.68,4.26,24.7-1.87,9.37-1.87,9.37l59.61,6.64-.17-16.18s5.28-11.58,9-18.23,11.24-14.47,11.24-14.47,12.77,3.06,29.64-.51c4.69-1,15.67-4.6,15.67-4.6s16.86,1.36,24-.34,13.8-4.09,13.8-4.09l10.56-.68.51-14L280,172.78s-24-4.43-28.1-2.55A45.14,45.14,0,0,1,241.54,173l-22.66-.51s-4.42-6.81-10.9-8.52-16.69-2.21-16.69-2.21l2.39-5.79s4.43-.34,4.43-1S197.59,147.23,197.59,147.23Z" style="fill:#fff;stroke:#263238;stroke-linecap:round;stroke-linejoin:round"></path><path d="M287.59,173l.22,15.27.91-.31,10.56-.68.51-14Z" style="fill:#fff;stroke:#263238;stroke-linecap:round;stroke-linejoin:round"></path><path d="M164.88,209.52a17.31,17.31,0,0,1,6.84,8.83" style="fill:none;stroke:#263238;stroke-linecap:round;stroke-linejoin:round"></path><path d="M159.27,233.4a18.23,18.23,0,0,1-.34,3.47" style="fill:none;stroke:#263238;stroke-linecap:round;stroke-linejoin:round"></path><path d="M160.91,217.68s-1.76,6-2,7.5a43.16,43.16,0,0,0,.25,4.89" style="fill:none;stroke:#263238;stroke-linecap:round;stroke-linejoin:round"></path><path d="M164.21,140.25c1.53-1.36,7.15-4.94,7.15-4.94l2.39-1.7s5.11,2.21,5.79,1.19.34-2.9,1.36-3.07,8.86,2.73,8.35-.34-5.79-9-.51-9.2,11.07,7.16,15,6.82c-1-6.3-4.94-15.33-14.14-18.06s-16.69-.17-20.61,6.31-5.11,13.62-5.79,18a35.78,35.78,0,0,1-2.24,7A14.94,14.94,0,0,0,164.21,140.25Z" style="fill:#263238;stroke:#263238;stroke-linecap:round;stroke-linejoin:round"></path><path d="M176,136.16s-.34-4.26-3.06-4.77-4.6,4.26-4.43,8.69,5.11,3.41,5.11,3.41-1.36,4.59-1,6.3" style="fill:#fff;stroke:#263238;stroke-linecap:round;stroke-linejoin:round"></path><path d="M197.93,145.7s-1.87-2.9-3.57-3.58l-1.71-.68" style="fill:none;stroke:#263238;stroke-linecap:round;stroke-linejoin:round"></path><path d="M195,146.28c-.45.93-1.19,1.5-1.66,1.28s-.48-1.17,0-2.1,1.2-1.5,1.66-1.28S195.48,145.35,195,146.28Z" style="fill:#263238"></path><path d="M195.1,196.82a11.33,11.33,0,0,1-3.31,3.22" style="fill:none;stroke:#263238;stroke-linecap:round;stroke-linejoin:round"></path><path d="M214.8,174.14s-15.16,13.8-17.72,18.57a9.45,9.45,0,0,1-.34,1" style="fill:none;stroke:#263238;stroke-linecap:round;stroke-linejoin:round"></path><path d="M241.11,187.62a25.16,25.16,0,0,0,4.69-2.41" style="fill:none;stroke:#263238;stroke-linecap:round;stroke-linejoin:round"></path><path d="M202.36,186.92s11.41,5.79,24.36,4.26a59.85,59.85,0,0,0,10.35-2.12" style="fill:none;stroke:#263238;stroke-linecap:round;stroke-linejoin:round"></path><path d="M205.6,197.48a9.38,9.38,0,0,1-3.92-3.07" style="fill:none;stroke:#263238;stroke-linecap:round;stroke-linejoin:round"></path><path d="M299.79,173.29s13.95-8.09,20.35-6.77,10.58,7.06,9.48,17-1.76,12.57-5.73,14.34-13.46-2.21-14.12-3.31-4.85.22-7.5-2.87-3-4.4-3-4.4Z" style="fill:#5D84DF;stroke:#263238;stroke-linecap:round;stroke-linejoin:round"></path><path d="M303.16,182.4s1.1,6.39,4.41,7.5a7.51,7.51,0,0,0,6.17-.89s-1.1,5.52,2.21,5.3,5.95-6.18,5.95-14.12-4.85-8.16-4.85-8.16" style="fill:none;stroke:#263238;stroke-linecap:round;stroke-linejoin:round"></path><path d="M109.75,318.69s-.22,18.08-.88,19.84-12.57,7.94-15,15.44-14.33,47.42-15,51.38-9.26,11.91-10.15,17.87,4.86,7.5,10.15,6.83,10.58.45,13.45-7.49,1.32-15.88,2.87-19.63,7.72-20.07,12.35-24.48,13.45-15,17-23.82,6.83-11,10.14-20.95,3.75-11,3.75-11Z" style="fill:#fff;stroke:#263238;stroke-linecap:round;stroke-linejoin:round"></path><polygon points="109.88 326.55 134.67 333.68 136.36 329.15 108.7 320.87 109.88 326.55" style="fill:#263238;stroke:#263238;stroke-linecap:round;stroke-linejoin:round"></polygon><path d="M105.44,381.08c-12.28,2.3-16.75-1.43-18.37-4.67-3.83,12.9-7.82,26.69-8.19,28.94-.66,4-9.26,11.91-10.15,17.87s4.86,7.5,10.15,6.83,10.58.45,13.45-7.49,1.32-15.88,2.87-19.63C96.52,399.73,101.21,387.37,105.44,381.08Z" style="fill:#fff;stroke:#263238;stroke-linecap:round;stroke-linejoin:round"></path><path d="M83.48,388.63c-2.42,8.31-4.35,15.19-4.6,16.72-.66,4-9.26,11.91-10.15,17.87s4.86,7.5,10.15,6.83,10.58.45,13.45-7.49,1.32-15.88,2.87-19.63c.71-1.73,2.41-6.14,4.49-10.81C92.68,393.38,86.4,390.38,83.48,388.63Z" style="fill:#5D84DF;stroke:#263238;stroke-linecap:round;stroke-linejoin:round"></path><path d="M91.94,423.51a26.44,26.44,0,0,1-11.74,3.9c-6,.63-9.56-1.83-11.48-4.06-.77,5.84,4.91,7.36,10.16,6.7C83.94,429.42,89,430.38,91.94,423.51Z" style="fill:#fff;stroke:#263238;stroke-linecap:round;stroke-linejoin:round"></path><path d="M111.08,336.55s-1.55,5.51-.89,8.6" style="fill:none;stroke:#263238;stroke-linecap:round;stroke-linejoin:round"></path><path d="M131.14,339.42a29.21,29.21,0,0,1-2.64,4.85,14.23,14.23,0,0,1-2.87,2.42s-2.87,4.41-5.51,5.74" style="fill:none;stroke:#263238;stroke-linecap:round;stroke-linejoin:round"></path><path d="M184.07,330.6l5.51,9.26s1.55,13.23,3.31,19.18,5.07,10.81,7.94,15.88,7.28,17.2,7.94,22.05-.88,15.88-.88,18.53-.44,5.07,4.19,5.95,6.39.44,7.94,1.55,4.19,5.73,11,7.5,11,1.76,11.47-2-7.94-11.91-11-15-6.61-7.49-7.71-11.9S226,386,222,368.31s-5.29-26-5.29-26-4.85-11.91-6.18-13.45-3.74-7.5-3.74-7.5Z" style="fill:#fff;stroke:#263238;stroke-linecap:round;stroke-linejoin:round"></path><path d="M187.9,336.24l21.52-9-2.63-5.93-22.72,9.27S186.25,335.06,187.9,336.24Z" style="fill:#263238;stroke:#263238;stroke-linecap:round;stroke-linejoin:round"></path><path d="M242.51,428.51c.44-3.75-7.94-11.91-11-15s-6.61-7.49-7.71-11.9c-.76-3,.56-9.3.18-18.65a23.72,23.72,0,0,1-18.41,2.84A66.2,66.2,0,0,1,208.77,397c.66,4.86-.88,15.88-.88,18.53s-.44,5.07,4.19,5.95,6.39.44,7.94,1.55,4.19,5.73,11,7.5S242.07,432.26,242.51,428.51Z" style="fill:#fff;stroke:#263238;stroke-linecap:round;stroke-linejoin:round"></path><path d="M231.48,413.51c-3.08-3.08-6.61-7.49-7.71-11.9-.48-1.91-.13-5.11.1-9.55a17.58,17.58,0,0,1-15.45,3.08c.15.68.28,1.31.35,1.83.66,4.86-.88,15.88-.88,18.53s-.44,5.07,4.19,5.95,6.39.44,7.94,1.55,4.19,5.73,11,7.5,11,1.76,11.47-2S234.57,416.6,231.48,413.51Z" style="fill:#5D84DF;stroke:#263238;stroke-linecap:round;stroke-linejoin:round"></path><path d="M242.51,428.51a2.72,2.72,0,0,0,0-.8,8.47,8.47,0,0,1-5.92,1.9c-3.53-.44-8.38-2.42-11-5.07s-5.95-4.41-11.69-5.73a21.27,21.27,0,0,1-6-2.38c0,2.27.12,4.25,4.2,5,4.63.89,6.39.44,7.94,1.55s4.19,5.73,11,7.5S242.07,432.26,242.51,428.51Z" style="fill:#fff;stroke:#263238;stroke-linecap:round;stroke-linejoin:round"></path><path d="M124.09,235.77l-2.87,14.55s27.12,6.84,68.14,5.52l-2.86-13.9S136.44,234.89,124.09,235.77Z" style="fill:#5D84DF;stroke:#263238;stroke-linecap:round;stroke-linejoin:round"></path><rect x="148.82" y="239.13" width="18.18" height="12.83" transform="translate(26.32 -15.06) rotate(5.95)" style="fill:#fff;stroke:#263238;stroke-linecap:round;stroke-linejoin:round"></rect><path d="M121.22,250.32a213,213,0,0,0-11,31.76c-4,16.1-5.51,39.25-5.51,39.25a227.83,227.83,0,0,0,26.9,8.6c12.35,2.87,18.31,4.19,18.31,4.19l5.73-12.35,2,13.24a224.73,224.73,0,0,0,25.58-2.21c13.45-2,27.12-9,27.12-9s-4-27.57-9.48-42.78a158,158,0,0,0-11.47-25.14Z" style="fill:#5D84DF;stroke:#263238;stroke-linecap:round;stroke-linejoin:round"></path><path d="M195.44,267.78a129.42,129.42,0,0,0-6.08-11.94l-68.14-5.52s-3.72,8.25-7.27,18.92c12.15,11.76,36.05,37,39.59,57l2.08-4.49,1,6.65C163.07,313.4,178,282.08,195.44,267.78Z" style="fill:#263238;stroke:#263238;stroke-linecap:round;stroke-linejoin:round"></path><path d="M136.7,277s9.77,13.51,14.66,22.42" style="fill:none;stroke:#7a7a7a;stroke-linecap:round;stroke-linejoin:round"></path><path d="M132.39,266.33s8.62,8.91,10.06,12.36" style="fill:none;stroke:#7a7a7a;stroke-linecap:round;stroke-linejoin:round"></path><line x1="185.26" y1="262.88" x2="172.91" y2="287.31" style="fill:none;stroke:#7a7a7a;stroke-linecap:round;stroke-linejoin:round"></line><line x1="178.36" y1="271.79" x2="170.61" y2="283" style="fill:none;stroke:#7a7a7a;stroke-linecap:round;stroke-linejoin:round"></line><line x1="141.05" y1="170.23" x2="135.43" y2="173.8" style="fill:none;stroke:#263238;stroke-linecap:round;stroke-linejoin:round"></line><path d="M118.9,174.31s-5.79,10.39-6,17-.34,15.15,0,17.88.51,9.71,2.39,12.09a9.64,9.64,0,0,0,9,3.41c3.91-.51,7.49-4.43,9.53-5.62s7.16-1.53,12.44-7.84,18.73-24,18.73-24l-9.88-9.37S147,185,146.5,185.55s-6.65,2.56-6.65,2.56,3.41-4.26,2.56-9.37-3.58-6.64-3.58-6.64" style="fill:#fff;stroke:#263238;stroke-linecap:round;stroke-linejoin:round"></path><path d="M139.85,188.11s-15.32,7.32-18.39,11.07-5.45,11.41-5.62,14" style="fill:none;stroke:#263238;stroke-linecap:round;stroke-linejoin:round"></path><path d="M128,208.63c.25-.24.5-.49.74-.76,3.07-3.41,9.37-12.78,9.37-12.78" style="fill:none;stroke:#263238;stroke-linecap:round;stroke-linejoin:round"></path><path d="M122.31,211.61a8.1,8.1,0,0,0,2.09-.59" style="fill:none;stroke:#263238;stroke-linecap:round;stroke-linejoin:round"></path><path d="M165.06,187.26l-9.88-9.37S147,185,146.5,185.55l10.38,12.38C161.25,192.28,165.06,187.26,165.06,187.26Z" style="fill:none;stroke:#263238;stroke-linecap:round;stroke-linejoin:round"></path><path d="M155.18,177.89a74.72,74.72,0,0,0,3.58-7.32c.51-1.71-3.41-9.2,3.24-14.48s10.56-5.11,10.9-4.6c0,0,4.77-1.87,8.17-.17s10.73,12.6,10.9,17.54-7,11.24-11.07,13.8-15.84,4.6-15.84,4.6Z" style="fill:#5D84DF;stroke:#263238;stroke-linecap:round;stroke-linejoin:round"></path><path d="M172.9,151.49s-5.28,1.87-6.82,4.26" style="fill:none;stroke:#263238;stroke-linecap:round;stroke-linejoin:round"></path></g></svg>